<?xml version="1.0" encoding="UTF-8"?>
<svg id="Layer_2" data-name="Layer 2" xmlns="http://www.w3.org/2000/svg" viewBox="0 0 97.25 87.48">
  <defs>
    <style>
      .cls-1 {
        fill: #fefefe;
        stroke: #231f20;
      }

      .cls-1, .cls-2 {
        stroke-miterlimit: 10;
        stroke-width: 2px;
      }

      .cls-2 {
        fill: #fff;
        stroke: #101820;
      }
    </style>
  </defs>
  <g transform="translate(9.73, 8.75) scale(0.8)">
    <g id="Working_Layer" data-name="Working Layer">
    <g id="Logo2">
      <rect class="cls-1" x="1" y="1" width="18.02" height="85.41"/>
      <g>
        <path class="cls-2" d="M71.84,66.74c3.76-6.47,5.63-14.39,5.63-23.77,0-14.15-3.94-24.65-11.83-31.51C57.75,4.6,46.37,1.17,31.49,1.17h-7.3v14.95h6.02c6.33,0,11.48.82,15.45,2.46,3.97,1.64,6.9,4.44,8.79,8.38,1.89,3.95,2.83,9.34,2.83,16.18s-1.03,12.22-3.08,16.39c-2.05,4.16-5.03,7.2-8.93,9.12-3.39,1.67-7.41,2.61-12.04,2.82h35.36c1.19-1.47,2.27-3.05,3.25-4.73Z"/>
        <rect class="cls-2" x="24.19" y="71.52" width=".1" height="14.89"/>
        <path class="cls-2" d="M68.59,71.47c-3.38,4.18-7.61,7.5-12.69,9.96-6.87,3.32-15.01,4.98-24.41,4.98h-7.2v.07h71.95v-15.01h-27.66Z"/>
        <path class="cls-2" d="M33.23,71.47h-8.94v.05h6.84c.71,0,1.41-.02,2.1-.05Z"/>
        <path class="cls-2" d="M55.9,81.42c5.08-2.46,9.31-5.78,12.69-9.96h-35.36c-.69.03-1.38.05-2.1.05h-6.84v14.89h7.2c9.4,0,17.54-1.66,24.41-4.98Z"/>
      </g>
    </g>
    </g>
  </g>
</svg>